<?xml version="1.0" encoding="UTF-8"?>
<svg width="520px" height="70px" viewBox="0 0 520 70" version="1.1" xmlns="http://www.w3.org/2000/svg" xmlns:xlink="http://www.w3.org/1999/xlink">
    <!-- Generator: Sketch 53 (72520) - https://sketchapp.com -->
    <title>logo</title>
    <desc>Created with Sketch.</desc>
    <g id="Page-1" stroke="none" stroke-width="1" fill="none" fill-rule="evenodd">
        <g id="logo" fill-rule="nonzero">
            <path d="M-1.13686838e-13,69.5745703 L19.5593283,69.5745703 L19.5593283,45.8662935 L52.2569933,45.8662935 L52.2569933,30.7522671 L-1.13686838e-13,30.7522671 L-1.13686838e-13,69.5745703 Z M-3.55271368e-14,0.425429744 L-3.55271368e-14,15.5394562 L52.2569933,15.5394562 L52.2569933,0.425429744 L-3.55271368e-14,0.425429744 Z" id="path362715" fill="#E50914"></path>
            <polygon id="path362717" fill="#FFFFFF" points="63.4767569 0.425429744 63.4767569 69.5745703 83.0360853 69.5745703 83.0360853 0.425429744"></polygon>
            <polygon id="path362719" fill="#FFFFFF" points="97.0480473 0.425429744 97.0480473 69.5745703 149.601394 69.5745703 149.601394 54.0654059 116.607376 54.0654059 116.607376 0.425429744"></polygon>
            <path d="M237.457847,26.8008876 L219.577855,58.8070612 L219.676639,69.5745703 L237.655416,69.5745703 L237.457847,26.8008876 Z M157.244844,69.5745703 L175.322405,69.5745703 L175.322405,59.9924751 L157.244844,27.689948 L157.244844,69.5745703 Z M221.355975,0.425429744 L197.647699,40.3343623 L173.346715,0.425429744 L157.244844,0.425429744 L175.322405,33.9133706 L193.004828,62.7584407 L201.697863,62.7584407 L219.47907,32.9255258 L236.963924,0.425429744 L221.355975,0.425429744 Z" id="path362721" fill="#FFFFFF"></path>
            <polygon id="path362723" fill="#FFFFFF" points="292.789507 0.425429744 273.526532 0.425429744 243.002126 69.5745703 262.956592 69.5745703 268.389739 56.1398801 274.119239 41.7173451 283.009843 19.5896201 291.900447 41.7173451 297.629947 56.1398801 303.063094 69.5745703 323.412698 69.5745703"></polygon>
            <path d="M391.39186,40.0380088 C389.119817,37.0744742 385.958713,34.9012155 382.106118,33.5182327 C384.970868,32.0364654 387.341696,29.9619912 388.922248,27.3935945 C390.502799,24.8251979 391.39186,21.8616633 391.39186,18.5029908 C391.39186,12.9710595 389.021032,8.62454212 384.476946,5.36465407 C379.834075,2.10476601 373.11673,0.425429744 364.32491,0.425429744 L328.960064,0.425429744 L328.960064,14.5516113 L361.756514,14.5516113 C368.27629,14.5516113 371.634962,16.8236545 371.634962,21.1701719 C371.634962,25.7142583 368.27629,27.887517 361.756514,27.887517 L328.960064,27.887517 L328.960064,41.4209916 L364.720048,41.4209916 C371.536178,41.4209916 374.993635,43.7918193 374.993635,48.4346902 C374.993635,53.1763455 371.536178,55.4483887 364.720048,55.4483887 L328.960064,55.4483887 L328.960064,69.5745703 L366.3006,69.5745703 C375.487557,69.5745703 382.501256,67.9940185 387.44048,64.6353459 C392.28092,61.3754579 394.750532,56.732587 394.750532,50.6079489 C394.750532,46.4590004 393.565118,43.0015434 391.39186,40.0380088 Z" id="path362725" fill="#FFFFFF"></path>
            <polygon id="path362727" fill="#FFFFFF" points="404.977814 0.425429744 404.977814 69.5745703 457.53116 69.5745703 457.53116 54.0654059 424.537142 54.0654059 424.537142 0.425429744"></polygon>
            <path d="M520,0.425429744 L465.17461,0.425429744 L465.17461,15.5394562 L520,15.5394562 L520,0.425429744 Z M520,27.1960256 L465.17461,27.1960256 L465.17461,41.8161296 L520,41.8161296 L520,27.1960256 Z M465.17461,54.4605438 L465.17461,69.5745703 L520,69.5745703 L520,54.4605438 L465.17461,54.4605438 Z" id="path362729" fill="#E50914"></path>
        </g>
    </g>
</svg>